<?xml version="1.0" standalone="no"?>
<!DOCTYPE svg PUBLIC "-//W3C//DTD SVG 20010904//EN"
 "http://www.w3.org/TR/2001/REC-SVG-20010904/DTD/svg10.dtd">
<svg version="1.0" xmlns="http://www.w3.org/2000/svg"
 width="400.000000pt" height="600.000000pt" viewBox="0 0 400.000000 600.000000"
 preserveAspectRatio="xMidYMid meet">

<g transform="translate(0.000000,600.000000) scale(0.100000,-0.100000)"
fill="#000000" stroke="none">
<path d="M2342 5829 c-1 -23 -8 -39 -18 -43 -8 -3 -13 -2 -10 2 3 5 -2 9 -10
9 -8 0 -13 -6 -10 -12 2 -7 -1 -18 -7 -25 -9 -9 -9 -14 -1 -17 31 -11 47 -31
39 -49 -5 -12 -9 -15 -12 -6 -3 6 -13 12 -23 12 -11 0 -25 12 -32 27 -7 14
-23 30 -36 34 -13 5 -21 5 -18 0 3 -5 -2 -15 -11 -22 -20 -18 -43 -71 -43
-103 0 -14 10 -30 24 -40 l25 -15 -28 -51 c-15 -28 -42 -61 -60 -74 -30 -23
-31 -25 -12 -31 12 -3 21 -11 21 -16 0 -5 7 -9 15 -9 19 0 20 -50 3 -69 -7 -8
36 19 96 60 60 40 104 75 98 77 -17 5 -15 48 4 66 22 23 54 4 54 -32 1 -23 2
-25 11 -9 6 10 15 14 22 10 7 -4 19 -8 27 -8 9 0 16 -11 18 -27 l3 -27 -57 20
c-31 11 -58 18 -60 16 -3 -2 59 -28 138 -58 151 -58 176 -66 141 -48 -20 11
-39 69 -22 69 4 0 20 11 34 24 l27 25 -39 17 c-21 9 -40 17 -43 16 -3 0 -6 11
-6 24 -3 49 -14 73 -29 68 -11 -5 -13 -2 -9 10 3 9 10 16 15 16 14 0 11 48 -5
78 -39 75 -116 89 -116 21 0 -28 -15 -40 -22 -18 -3 8 -9 6 -20 -4 -8 -9 -18
-13 -22 -10 -12 12 -6 24 19 35 30 14 32 34 4 41 -12 3 -18 10 -15 15 3 6 -2
8 -13 5 -16 -4 -20 1 -24 29 l-4 33 -1 -36z m178 -364 c0 -9 9 -15 23 -15 19
0 55 -36 45 -46 -2 -1 -27 4 -56 12 -50 15 -52 17 -52 50 0 32 2 34 20 24 11
-6 20 -17 20 -25z m-272 -25 c-2 -24 -13 -36 -45 -56 -36 -21 -43 -22 -43 -9
0 9 13 21 30 26 21 8 30 17 30 33 0 24 8 36 22 36 5 0 8 -14 6 -30z m52 10
c-30 -23 -40 -25 -40 -6 0 16 15 24 45 25 18 1 18 -1 -5 -19z"/>
<path d="M2427 5813 c-15 -2 -25 -8 -22 -12 6 -11 55 -1 55 10 0 5 -1 8 -2 8
-2 -1 -15 -4 -31 -6z"/>
<path d="M2250 5778 c0 -12 3 -17 8 -12 4 5 11 12 15 15 5 3 2 9 -7 12 -12 5
-16 0 -16 -15z"/>
<path d="M1490 5648 c-19 -13 -34 -27 -32 -31 1 -4 2 -14 2 -22 0 -8 5 -15 10
-15 6 0 10 5 10 12 0 7 12 22 26 33 41 32 27 51 -16 23z"/>
<path d="M1462 5459 l-2 -76 -87 -70 c-49 -39 -142 -111 -208 -162 -66 -50
-145 -111 -175 -134 -50 -40 -58 -43 -87 -34 -28 9 -38 6 -82 -22 -64 -42 -74
-55 -73 -95 1 -22 -6 -40 -18 -51 -16 -14 -20 -15 -21 -4 0 9 -3 8 -7 -4 -4
-9 -86 -78 -182 -152 -162 -125 -178 -135 -210 -131 -29 4 -42 0 -72 -27 -22
-19 -39 -43 -41 -58 -3 -28 -23 -59 -38 -59 -4 0 -10 10 -12 23 -3 15 -4 13
-2 -5 1 -24 -10 -37 -72 -84 -71 -55 -73 -57 -73 -101 0 -25 4 -43 9 -41 9 3
285 209 879 655 211 158 393 294 403 302 17 12 26 12 67 -2 26 -9 206 -69 400
-135 l354 -119 122 74 123 74 207 -75 c114 -42 215 -76 226 -76 36 0 29 17
-12 31 -22 7 -47 20 -55 28 -24 24 -355 133 -367 121 -18 -18 -26 -11 -26 23
0 25 6 35 26 44 14 6 31 10 37 8 7 -2 24 -6 40 -9 20 -5 27 -12 27 -30 0 -37
10 -56 31 -56 14 0 19 7 19 30 0 28 2 30 20 20 11 -6 25 -8 30 -5 17 11 51 -6
49 -23 -1 -9 0 -20 1 -24 4 -13 7 -27 9 -38 0 -5 8 -10 16 -10 10 0 15 10 15
29 0 25 3 28 23 24 19 -4 20 -3 6 9 -15 12 -22 34 -36 117 -5 30 -3 33 15 29
15 -4 21 0 24 17 5 22 -6 27 -151 78 -86 31 -161 57 -167 59 -16 4 -285 -172
-278 -183 3 -5 1 -9 -4 -9 -11 0 -370 124 -509 176 l-102 38 -4 85 -3 86 -2
-76z m946 -184 c2 -2 6 -33 9 -70 l5 -67 -31 7 c-20 4 -37 2 -46 -5 -11 -10
-15 -7 -20 12 -8 33 -2 114 8 108 5 -3 13 3 18 13 8 13 17 16 32 11 12 -3 23
-8 25 -9z m136 -51 c9 -8 16 -30 16 -47 0 -41 12 -59 33 -51 11 4 19 0 23 -10
9 -24 -4 -32 -28 -17 -15 9 -23 10 -28 2 -21 -34 -60 44 -60 119 0 24 23 26
44 4z m-85 -7 c6 -8 14 -28 17 -46 6 -31 6 -31 -18 -20 -20 9 -25 18 -25 45 1
37 8 42 26 21z m-209 -32 c0 -14 -4 -25 -10 -25 -5 0 -10 11 -10 25 0 14 5 25
10 25 6 0 10 -11 10 -25z m-19 -35 c15 0 11 -77 -5 -83 -17 -7 -32 45 -20 65
5 7 8 23 7 36 -1 19 0 19 4 2 2 -11 9 -20 14 -20z m-105 -105 c6 -25 -9 -55
-27 -55 -10 0 -12 63 -2 73 13 13 23 7 29 -18z"/>
<path d="M2205 5353 c-141 -94 -176 -122 -143 -110 12 4 15 2 12 -7 -14 -36
25 -19 149 63 l135 89 166 -62 c91 -35 166 -59 166 -55 0 5 0 12 -1 16 0 4 7
10 16 13 15 5 -80 46 -270 115 l-90 32 -140 -94z m175 67 c8 -5 11 -10 5 -10
-5 0 -17 5 -25 10 -8 5 -10 10 -5 10 6 0 17 -5 25 -10z m50 -20 c8 -5 11 -10
5 -10 -5 0 -17 5 -25 10 -8 5 -10 10 -5 10 6 0 17 -5 25 -10z m80 -30 c8 -5
11 -10 5 -10 -5 0 -17 5 -25 10 -8 5 -10 10 -5 10 6 0 17 -5 25 -10z m160 -60
c8 -5 11 -10 5 -10 -5 0 -17 5 -25 10 -8 5 -10 10 -5 10 6 0 17 -5 25 -10z"/>
<path d="M1531 5424 c0 -11 3 -14 6 -6 3 7 2 16 -1 19 -3 4 -6 -2 -5 -13z"/>
<path d="M2720 5173 c0 -4 9 -21 19 -37 11 -17 17 -35 14 -40 -3 -6 0 -6 7 1
17 16 5 60 -20 73 -11 6 -20 7 -20 3z"/>
<path d="M2672 5145 c0 -16 2 -22 5 -12 2 9 2 23 0 30 -3 6 -5 -1 -5 -18z"/>
<path d="M914 4831 c-210 -157 -443 -331 -519 -386 -322 -235 -395 -295 -395
-321 0 -17 4 -23 13 -18 11 7 262 191 296 218 11 8 13 8 8 0 -3 -6 -76 -62
-162 -125 l-155 -114 0 -1411 0 -1412 43 -7 c80 -12 97 -17 91 -26 -3 -5 9 -9
25 -9 41 0 36 1 78 -14 46 -16 266 -41 288 -32 11 4 17 -3 22 -24 4 -23 11
-30 29 -30 13 0 24 -5 24 -11 0 -15 -73 -7 -265 32 -82 16 -184 34 -225 40
-41 5 -83 12 -92 15 -16 5 -17 -4 -15 -87 2 -106 -14 -94 146 -108 66 -6 114
-6 130 0 14 6 71 9 126 8 96 -2 102 -1 156 30 90 50 211 90 316 103 58 7 89
14 77 18 -60 21 273 28 576 12 l135 -7 -232 -7 c-232 -7 -303 -19 -303 -49 0
-6 7 -9 15 -5 8 3 72 10 142 16 127 12 248 8 436 -11 86 -9 102 -8 124 6 27
18 98 14 138 -7 18 -10 17 -13 -18 -42 l-38 -32 23 -20 c33 -30 138 -76 131
-58 -4 11 0 13 18 5 13 -4 62 -9 109 -10 139 -3 305 -9 475 -17 88 -4 181 -7
207 -8 51 -1 62 -10 26 -22 -37 -12 0 -21 114 -29 97 -6 107 -5 117 12 6 10
11 13 11 6 0 -6 3 -18 6 -26 3 -8 -2 -22 -11 -31 -9 -9 -13 -16 -8 -16 4 0 2
-4 -6 -9 -17 -11 -7 -41 13 -41 10 0 17 15 22 45 8 54 25 50 22 -5 -2 -31 -8
-40 -26 -45 -12 -3 -31 -1 -42 5 -11 6 -26 7 -33 3 -6 -4 -16 -8 -22 -8 -51
-3 -155 -18 -155 -22 0 -3 8 -12 18 -19 9 -7 12 -14 6 -14 -6 0 -17 7 -24 15
-17 21 -95 21 -86 0 3 -8 9 -22 12 -30 5 -11 -1 -14 -22 -13 -16 1 -38 7 -49
13 -12 7 -34 9 -55 5 -23 -5 -27 -8 -12 -9 12 0 22 -7 22 -13 0 -9 16 -12 54
-10 47 3 54 1 59 -17 3 -14 10 -19 20 -15 8 3 18 0 22 -6 11 -19 -4 -25 -27
-11 -16 10 -22 10 -28 1 -5 -8 -14 -4 -27 14 -11 14 -23 22 -27 19 -4 -4 -32
-8 -64 -9 -141 -5 -146 -6 -129 -16 13 -7 15 -13 7 -28 -14 -27 4 -34 37 -14
24 14 25 14 9 0 -19 -16 -19 -16 5 -18 13 0 29 -2 34 -3 6 -2 15 -4 20 -5 6
-1 20 -1 33 0 12 1 22 -3 22 -9 0 -5 10 -9 23 -9 53 3 128 -3 124 -9 -3 -5 5
-9 16 -9 12 -1 33 -5 47 -10 22 -6 23 -5 12 8 -10 13 -9 18 3 28 13 11 16 11
13 -1 -2 -10 4 -13 21 -11 13 2 21 0 18 -5 -2 -4 10 -15 29 -24 20 -10 32 -12
31 -5 -2 10 6 10 58 2 11 -2 34 -4 50 -5 26 -1 28 -3 12 -12 -10 -6 -35 -8
-55 -4 -25 4 -48 1 -67 -9 -20 -11 -31 -12 -36 -4 -4 6 -12 7 -18 3 -7 -4 -43
-7 -81 -6 -38 0 -71 -3 -74 -7 -2 -4 -35 -7 -73 -7 -69 0 -84 -6 -96 -38 -3
-9 -12 -17 -19 -17 -10 0 -10 -2 -1 -8 15 -9 -6 -94 -22 -89 -17 6 -18 37 -1
37 18 0 22 26 5 32 -16 5 1 38 20 38 11 1 8 5 -9 15 -28 16 -53 20 -30 5 13
-9 13 -12 -2 -21 -10 -5 -18 -15 -18 -22 0 -7 4 -6 10 3 8 13 10 13 10 -1 0
-21 -26 -44 -34 -30 -3 5 -2 21 4 36 9 24 8 26 -12 19 -13 -4 -27 -12 -31 -18
-5 -6 -7 -2 -4 12 3 15 0 22 -9 22 -8 0 -14 4 -14 9 0 6 -12 6 -30 0 -16 -6
-27 -15 -24 -20 3 -5 10 -7 16 -3 5 3 1 -9 -9 -27 -10 -19 -18 -38 -18 -44 -1
-24 -16 -35 -35 -25 -20 11 -60 -5 -60 -23 0 -4 4 -5 10 -2 5 3 7 0 4 -8 -6
-17 -44 -30 -44 -15 0 5 5 18 10 29 6 11 7 19 1 19 -5 0 -11 -7 -15 -15 -7
-18 -32 -20 -40 -2 -3 9 -8 8 -18 -5 -10 -11 -19 -14 -29 -7 -12 8 -6 13 13
10 4 0 5 6 2 14 -7 17 -24 20 -24 5 0 -13 -21 -13 -55 0 -22 8 -25 13 -15 25
13 16 43 9 34 -9 -3 -6 1 -3 10 8 10 13 21 16 33 11 10 -4 28 -7 39 -6 15 2
22 -3 20 -15 0 -9 6 -19 14 -21 12 -4 12 -3 1 5 -10 8 -11 11 -1 17 10 6 8 12
-6 23 -16 12 -16 14 -2 9 10 -3 24 1 33 9 13 14 16 14 21 0 3 -9 1 -23 -6 -31
-9 -11 -9 -15 -1 -15 7 0 17 13 24 29 9 21 16 26 31 21 17 -6 17 -7 2 -23 -15
-15 -16 -17 -2 -17 9 0 16 5 16 11 0 5 4 7 10 4 5 -3 7 0 4 9 -3 9 3 17 18 22
22 7 22 7 3 14 -11 4 -24 4 -29 0 -5 -5 -18 -5 -30 -1 -11 4 -56 14 -98 21
-82 13 -85 17 -72 67 4 13 10 20 15 17 15 -9 10 13 -5 25 -11 10 -16 8 -21 -8
-3 -12 -10 -21 -15 -21 -5 0 -15 -2 -22 -5 -10 -4 -21 8 -33 34 -60 133 -220
148 -330 30 -26 -27 -55 -69 -66 -94 -14 -32 -26 -45 -47 -49 -22 -5 -204 -34
-322 -51 -67 -10 -472 -76 -519 -85 -29 -5 -57 -7 -62 -4 -5 3 -10 20 -10 37
-2 30 -2 29 -8 -8 l-7 -40 -17 59 c-38 125 -156 195 -284 168 -123 -26 -209
-98 -270 -230 -20 -42 -37 -78 -37 -78 -1 -1 -15 -5 -32 -8 -29 -6 -34 -4 -54
31 -35 58 -61 83 -87 83 -22 0 -24 -3 -21 -47 3 -47 4 -48 38 -51 55 -5 61
-22 7 -22 l-47 0 0 -85 0 -85 295 0 c269 0 295 1 305 17 11 17 11 17 6 1 -5
-17 45 -18 955 -18 842 0 960 2 965 15 4 8 11 12 16 9 6 -4 5 -10 -3 -15 -11
-7 -9 -9 7 -9 11 0 25 5 32 12 9 9 12 9 12 0 0 -15 34 -16 61 -2 14 8 19 7 19
-2 0 -9 3 -10 8 -2 4 6 19 14 34 18 22 5 26 3 22 -9 -4 -8 -1 -15 5 -15 6 0
11 7 11 15 0 8 9 15 21 15 13 0 18 4 14 13 -4 6 0 4 8 -5 19 -24 27 -23 27 3
0 11 5 17 10 14 6 -3 10 3 10 14 0 13 7 21 16 21 14 0 14 -3 4 -15 -8 -9 -8
-15 -2 -15 6 0 13 -8 15 -17 3 -13 5 -11 6 6 1 17 5 22 17 17 9 -4 23 -1 30 5
24 20 17 -22 -8 -48 l-21 -23 551 0 552 0 0 184 -1 184 -82 12 c-166 24 -203
35 -241 72 -20 19 -32 38 -28 42 4 4 7 13 7 19 0 13 107 36 175 37 25 1 73 3
108 6 l62 6 0 64 c0 51 -3 64 -16 64 -8 0 -36 16 -61 35 -26 20 -49 31 -52 27
-3 -5 -15 -6 -27 -2 -21 8 -25 21 -41 126 l-4 32 51 3 c51 4 76 -6 46 -17 -30
-12 -5 -24 47 -23 29 0 45 3 37 7 -24 11 -24 42 0 42 19 0 20 6 20 139 l0 140
-42 4 -43 4 43 1 c31 2 42 6 42 18 0 9 -9 18 -20 21 -11 3 -17 10 -14 15 3 5
12 7 20 4 8 -3 14 1 14 10 0 8 -10 19 -22 24 l-23 9 23 0 c12 1 22 7 22 15 0
9 -10 13 -25 12 -14 0 -25 -5 -25 -9 0 -4 -8 -3 -17 2 -10 5 -33 7 -51 5 -24
-3 -32 0 -29 9 2 7 25 13 58 13 82 2 89 3 89 13 0 5 -13 11 -29 13 -17 2 -28
2 -26 -1 2 -3 -24 -6 -56 -6 -46 0 -56 3 -44 11 16 12 21 29 6 19 -9 -5 -8 16
5 103 3 17 10 32 16 32 5 0 8 7 5 14 -3 8 1 29 10 47 9 17 16 50 16 73 -1 54
13 82 33 65 8 -6 13 -18 12 -27 -2 -8 2 -17 8 -19 7 -2 10 5 7 22 -4 20 -1 25
16 25 20 0 21 4 21 132 0 118 -2 130 -15 112 -10 -13 -14 -15 -15 -5 0 8 8 23
18 34 12 15 14 21 5 24 -7 3 -13 11 -13 19 0 8 -9 23 -20 34 -12 12 -18 25
-15 30 4 6 -2 10 -11 10 -14 0 -15 3 -6 12 8 8 15 8 27 -2 13 -11 14 -10 8 6
-3 10 -10 21 -15 24 -4 3 -8 15 -9 25 -5 48 2 63 32 75 20 9 26 15 18 21 -7 4
-19 5 -28 2 -13 -5 -14 -3 -3 8 6 7 12 21 12 31 0 10 6 21 14 24 20 8 22 190
1 198 -19 7 -20 35 0 42 11 5 14 38 15 190 0 105 -4 184 -9 184 -5 0 -47 -9
-93 -19 -46 -11 -96 -22 -113 -25 -16 -2 -131 -25 -254 -50 -124 -25 -226 -44
-229 -42 -4 4 -11 118 -43 643 l-12 202 -90 21 c-49 11 -127 28 -173 37 -71
14 -84 19 -84 36 0 17 5 18 38 12 20 -4 43 -12 50 -18 12 -9 13 5 7 80 l-7 92
28 -8 c25 -6 30 -14 36 -52 3 -24 4 -63 2 -85 l-4 -42 47 -10 c27 -6 69 -13
96 -16 l47 -6 0 48 c-1 26 -7 139 -14 252 -12 183 -12 207 2 223 14 16 13 17
-9 18 -18 1 -20 2 -6 6 11 3 16 11 13 19 -4 9 2 14 17 14 12 0 27 8 33 18 6 9
34 26 63 37 28 11 51 22 51 25 0 3 -69 27 -152 54 -350 109 -409 129 -405 132
2 3 127 -34 277 -81 151 -47 279 -85 286 -85 10 0 24 21 24 35 0 3 -236 80
-405 131 -49 15 -84 29 -77 31 7 3 33 -2 59 -11 l47 -16 -29 30 c-16 16 -27
32 -24 34 2 2 22 13 44 24 40 20 40 20 15 30 -18 7 -554 197 -690 245 -13 5
-13 6 0 6 21 1 377 -121 618 -212 l93 -34 14 20 c8 12 11 24 7 27 -4 4 -81 33
-172 65 -91 32 -255 91 -364 131 l-199 72 -61 -36 c-34 -19 -89 -53 -123 -74
l-61 -39 -395 131 c-217 71 -400 130 -408 129 -8 -1 -186 -130 -395 -288z
m688 137 c153 -50 276 -93 274 -96 -2 -2 -129 37 -282 87 -180 58 -282 87
-288 81 -6 -6 -14 -10 -20 -10 -9 0 23 29 33 30 3 0 130 -41 283 -92z m-332
48 c0 -4 -286 -217 -390 -290 -128 -91 -9 4 180 143 204 150 210 155 210 147z
m197 -82 c-3 -3 -12 -4 -19 -1 -8 3 -5 6 6 6 11 1 17 -2 13 -5z m-107 -83 c0
-5 -7 -12 -16 -15 -14 -5 -15 -4 -4 9 14 17 20 19 20 6z m60 -1 c12 -8 11 -10
-7 -10 -13 0 -23 5 -23 10 0 13 11 13 30 0z m540 0 c18 -12 2 -12 -25 0 -13 6
-15 9 -5 9 8 0 22 -4 30 -9z m-460 -26 c0 -2 -7 -4 -15 -4 -8 0 -15 4 -15 10
0 5 7 7 15 4 8 -4 15 -8 15 -10z m975 6 c3 -5 1 -10 -4 -10 -6 0 -11 5 -11 10
0 6 2 10 4 10 3 0 8 -4 11 -10z m-923 -62 c92 -28 166 -53 164 -55 -4 -4 -347
96 -355 103 -14 12 42 -2 191 -48z m878 -29 c0 -4 -7 -6 -15 -3 -8 4 -15 10
-15 15 0 4 7 6 15 3 8 -4 15 -10 15 -15z m-600 -39 c0 -10 6 -21 13 -24 25
-11 -49 8 -83 21 -25 9 -27 12 -8 8 14 -3 33 -8 42 -11 12 -4 16 0 16 16 0 11
5 18 10 15 6 -3 10 -15 10 -25z m-614 12 c-3 -4 -53 -41 -113 -82 -59 -40
-103 -68 -98 -62 10 11 207 151 213 152 2 0 1 -4 -2 -8z m1286 -32 c46 -16 78
-29 72 -29 -13 -1 -185 57 -193 65 -7 8 11 2 121 -36z m-865 0 c3 -11 11 -20
19 -20 7 0 17 -6 21 -13 4 -6 25 -25 45 -40 36 -26 37 -30 36 -82 -1 -45 -5
-55 -19 -55 -15 0 -19 10 -21 52 -3 50 -5 53 -48 79 -34 21 -58 28 -102 28
l-58 1 0 -51 c0 -68 -22 -61 -33 12 -9 67 -5 79 32 79 16 0 33 5 36 10 8 12
46 3 58 -14 5 -6 7 -2 4 12 -7 28 23 31 30 2z m-817 2 c0 -4 -10 -13 -22 -21
-23 -14 -23 -14 -4 8 20 22 26 25 26 13z m1830 -33 c0 -10 5 -19 12 -19 6 0 9
-2 7 -5 -3 -2 -14 -2 -25 1 -16 4 -20 12 -16 30 5 27 22 23 22 -7z m-763 15
c-3 -3 -12 -4 -19 -1 -8 3 -5 6 6 6 11 1 17 -2 13 -5z m-1117 -19 c0 -2 -20
-18 -45 -35 -25 -17 -45 -29 -45 -26 0 4 80 64 88 66 1 0 2 -2 2 -5z m1965
-40 c39 -17 21 -18 -25 0 -19 7 -28 14 -20 14 8 0 29 -6 45 -14z m90 5 c3 -5
2 -10 -4 -10 -5 0 -13 5 -16 10 -3 6 -2 10 4 10 5 0 13 -4 16 -10z m60 -20 c3
-5 2 -10 -4 -10 -5 0 -13 5 -16 10 -3 6 -2 10 4 10 5 0 13 -4 16 -10z m-75
-10 c18 -12 2 -12 -25 0 -13 6 -15 9 -5 9 8 0 22 -4 30 -9z m-2140 -4 c0 -3
-55 -44 -122 -92 -192 -136 -224 -158 -212 -145 10 11 325 239 332 241 1 0 2
-2 2 -4z m1265 -5 c3 -5 -3 -12 -12 -14 -14 -4 -13 -5 5 -6 39 -2 24 -20 -20
-23 l-43 -3 3 -47 c2 -27 0 -48 -6 -48 -13 0 -20 20 -28 79 -6 49 -6 50 22 56
16 4 34 8 39 10 19 7 34 5 40 -4z m710 -8 c31 -11 71 -38 108 -73 l58 -55 -12
-75 c-7 -48 -9 -118 -5 -193 6 -111 9 -121 39 -167 18 -26 40 -50 50 -53 20
-6 23 -27 4 -27 -7 0 -112 25 -232 56 -121 30 -229 56 -240 56 -11 0 -69 -21
-130 -47 -123 -52 -110 -52 -290 -10 -60 14 -137 32 -170 39 -89 21 -241 55
-315 71 -36 8 -81 18 -101 23 -29 8 -41 6 -60 -9 -31 -24 -39 -24 -39 0 0 12
14 26 40 39 37 18 45 19 91 7 28 -8 57 -19 65 -25 12 -11 14 2 14 94 0 118 -4
113 75 93 46 -12 50 -16 58 -53 4 -21 7 -69 5 -106 l-3 -66 40 -8 c22 -4 51
-8 65 -9 45 -3 100 -17 100 -25 0 -10 204 -60 243 -60 14 0 37 -4 51 -10 21
-8 45 -1 137 40 61 28 120 50 131 50 11 0 34 16 53 36 l33 35 -5 132 c-3 73
-10 140 -14 149 -5 9 -9 30 -9 47 0 16 -4 33 -10 36 -22 14 -10 51 23 68 43
21 91 21 152 0z m-1062 -34 c12 -6 32 -23 44 -37 21 -25 23 -25 24 -7 2 44 17
-31 18 -92 1 -53 -1 -61 -16 -58 -10 2 -42 9 -70 15 l-53 12 0 89 c0 96 5 102
53 78z m-653 -14 c0 -2 -35 -28 -77 -56 -43 -28 -73 -46 -67 -40 10 11 134 99
142 100 1 1 2 -1 2 -4z m250 -132 l0 -108 -30 -17 -30 -17 0 98 c0 93 1 100
26 125 15 14 28 26 30 26 2 0 4 -48 4 -107z m902 13 c7 4 8 2 4 -4 -14 -22
-26 -12 -25 21 2 30 2 30 6 4 3 -16 9 -25 15 -21z m-1312 10 c0 -2 -18 -15
-40 -30 -22 -14 -40 -24 -40 -22 0 5 71 56 77 56 2 0 3 -2 3 -4z m2265 -82
c50 -15 94 -30 99 -35 7 -6 -163 41 -199 55 -33 14 22 2 100 -20z m-2415 -19
c0 -4 -155 -110 -190 -130 -36 -20 7 13 92 71 100 68 98 66 98 59z m2560 -25
c13 -8 13 -10 -2 -10 -9 0 -20 5 -23 10 -8 13 5 13 25 0z m-76 -54 c52 -50 56
-57 56 -100 0 -34 -4 -46 -15 -46 -11 0 -15 11 -15 43 0 40 -3 45 -39 65 -35
20 -100 30 -113 17 -13 -13 6 -64 28 -74 30 -13 43 -46 47 -112 l3 -51 -30 6
c-16 4 -31 8 -33 9 -2 2 -6 33 -9 68 -4 35 -12 71 -19 79 -13 14 -24 105 -14
113 2 3 21 7 42 11 33 6 39 4 47 -16 9 -21 10 -20 7 10 -2 17 -2 32 -1 32 1 0
27 -24 58 -54z m-215 -23 c-1 -65 -5 -61 -12 10 -2 26 -1 47 4 47 5 0 9 -26 8
-57z m-1697 -164 c6 -4 8 -11 4 -17 -8 -13 -133 -82 -148 -82 -20 0 21 37 62
55 l40 18 0 103 c0 73 4 104 13 107 9 3 13 -20 15 -87 2 -51 8 -93 14 -97z
m-782 127 c0 -2 -8 -10 -17 -17 -16 -13 -17 -12 -4 4 13 16 21 21 21 13z m229
-212 c-24 -29 -32 -8 -30 76 2 63 7 90 19 104 16 17 17 13 20 -74 2 -60 -1
-97 -9 -106z m-269 182 c0 -2 -12 -11 -27 -20 l-28 -17 24 20 c23 21 31 25 31
17z m2713 -106 c4 -56 3 -65 -3 -35 -9 40 -13 122 -6 114 2 -2 6 -38 9 -79z
m-2715 -242 c-27 -17 -30 -6 -23 75 10 121 29 134 33 22 2 -64 -1 -91 -10 -97z
m2297 121 c57 -14 85 -26 85 -36 0 -8 11 -25 26 -38 l25 -23 -29 -30 -29 -30
-77 18 c-73 17 -115 44 -116 77 0 6 -6 13 -12 16 -9 3 -6 11 10 26 12 12 22
26 22 31 0 13 -2 13 95 -11z m-2023 -75 c-2 -54 1 -90 8 -99 9 -11 3 -18 -32
-36 -24 -12 -53 -29 -65 -37 -20 -12 -23 -12 -23 0 0 8 21 26 48 39 l47 24 3
98 c1 53 6 97 10 97 4 0 6 -38 4 -86z m-476 -161 c-3 -7 -10 -13 -15 -13 -6 0
-8 26 -5 68 9 109 19 126 22 38 2 -44 1 -85 -2 -93z m205 -18 l3 -90 -49 -27
c-28 -15 -54 -28 -59 -28 -17 0 18 32 56 51 l38 19 0 87 c0 112 7 104 11 -12z
m1314 48 c14 -30 26 -42 42 -43 40 0 54 -25 47 -88 -4 -31 -10 -61 -15 -66
-13 -14 -22 19 -17 63 l3 39 -85 17 c-47 9 -95 19 -107 22 -22 5 -23 2 -23
-47 0 -28 -4 -49 -9 -46 -12 8 -34 124 -25 137 4 6 20 9 38 6 27 -4 34 -1 49
25 14 24 22 29 49 26 28 -2 36 -10 53 -45z m1004 13 c6 -7 8 -21 5 -30 -11
-28 16 -64 62 -85 51 -24 74 -55 104 -142 21 -63 22 -68 6 -90 -18 -27 -23
-183 -6 -194 6 -3 10 -1 10 5 0 7 6 5 15 -4 8 -8 15 -21 15 -29 0 -9 13 -18
30 -21 17 -3 44 -9 60 -12 21 -4 30 -2 31 8 5 72 5 148 -1 148 -4 0 -10 15
-13 33 -3 17 -9 47 -13 65 -6 30 -5 32 24 32 21 0 31 6 35 20 11 44 58 37 87
-14 8 -15 26 -33 40 -39 14 -7 25 -20 24 -30 0 -9 -1 -35 -2 -57 -3 -55 -22
-51 -22 4 l0 45 -57 11 c-32 6 -68 14 -80 17 -18 4 -23 1 -23 -13 0 -39 13
-63 34 -66 17 -2 23 -14 32 -60 6 -31 13 -84 16 -118 4 -54 2 -60 -15 -60 -18
0 -18 -1 -3 -25 22 -34 22 -115 0 -115 -9 0 -22 7 -28 15 -13 18 -119 38 -124
24 -6 -15 -52 -10 -52 5 0 18 -129 33 -140 16 -5 -9 -17 -9 -49 0 -22 6 -41
13 -41 16 0 2 7 16 16 29 13 19 14 39 9 100 -6 60 -5 75 6 75 11 0 11 2 -1 10
-10 6 -11 10 -2 10 6 0 13 8 13 18 1 16 2 16 6 0 2 -10 9 -18 14 -18 5 0 9
-15 10 -32 0 -18 2 -28 5 -23 2 6 27 8 54 7 l50 -4 -5 134 c-8 187 -12 212
-40 242 -27 29 -66 34 -85 11 -10 -12 -16 -10 -42 15 -35 35 -60 38 -89 9 -20
-20 -20 -26 -14 -222 5 -122 12 -204 18 -206 6 -2 -3 -10 -19 -17 l-29 -14 33
3 c21 2 32 -1 32 -10 0 -7 -4 -13 -10 -13 -5 0 -10 -7 -10 -15 0 -8 4 -15 9
-15 5 0 16 -3 25 -6 10 -4 16 -1 16 10 0 10 -6 13 -15 10 -8 -4 -15 -1 -15 5
0 6 5 11 10 11 6 0 10 10 11 23 1 18 2 17 10 -8 6 -16 12 -37 13 -45 2 -8 8
-14 14 -13 15 4 10 -35 -5 -41 -7 -3 -10 1 -7 8 3 8 1 17 -5 21 -6 3 -11 -2
-12 -12 0 -14 -2 -14 -9 5 -5 12 -16 22 -25 22 -18 0 -19 -4 -2 -31 9 -17 9
-23 0 -26 -7 -2 -10 -10 -7 -17 3 -8 -4 -16 -16 -19 -12 -3 -19 -10 -15 -16 3
-6 3 -11 -2 -12 -23 -2 -71 -12 -200 -44 -95 -23 -157 -33 -185 -30 -50 6
-233 27 -470 55 -92 11 -182 20 -200 20 -22 0 -28 3 -20 9 15 9 -73 7 -100 -3
-45 -16 -48 -15 -48 8 0 18 8 25 39 35 40 12 147 6 166 -10 15 -11 166 -30
267 -34 49 -1 94 -7 100 -12 16 -13 173 -32 257 -32 40 -1 106 11 175 29 61
17 130 30 154 30 l43 0 -2 105 c-1 58 1 109 5 112 10 10 7 179 -5 233 -6 28
-17 54 -25 57 -15 6 -19 49 -5 57 4 3 11 23 15 45 8 50 53 91 101 91 40 0 59
25 49 65 -7 28 15 35 35 11z m-676 -54 c8 -9 20 -29 26 -45 7 -17 18 -27 30
-27 36 0 51 -26 45 -78 -9 -73 -18 -82 -24 -23 l-5 55 -90 17 c-49 10 -93 18
-97 18 -5 1 -8 -22 -8 -50 0 -31 -4 -48 -10 -44 -5 3 -10 26 -10 50 0 26 -5
45 -12 48 -10 3 -10 9 -2 23 8 13 21 18 43 16 18 -1 31 3 31 10 0 18 31 48 50
48 9 0 24 -8 33 -18z m-369 -181 c3 -36 6 -96 6 -133 0 -75 1 -74 -72 -62
l-38 7 0 137 0 137 49 -9 48 -10 7 -67z m-1477 37 c-3 -7 -5 -2 -5 12 0 14 2
19 5 13 2 -7 2 -19 0 -25z m1522 -170 c1 -46 -3 -78 -9 -78 -6 0 -9 53 -8 143
1 118 2 131 8 77 4 -36 8 -100 9 -142z m-500 2 l1 -126 -30 -11 -30 -11 0 142
c0 139 1 143 23 153 32 15 35 -1 36 -147z m-1019 115 c0 -8 -23 -26 -51 -41
-32 -16 -50 -21 -47 -12 2 7 19 21 38 30 18 9 38 22 43 27 14 14 17 14 17 -4z
m2762 -105 c-6 -43 -12 -37 -12 13 0 25 4 37 8 29 5 -7 7 -26 4 -42z m203
-242 c4 -48 3 -78 -2 -78 -10 0 -24 132 -22 200 l1 35 8 -40 c4 -22 11 -75 15
-117z m-2495 12 c0 -109 -2 -120 -20 -130 -19 -10 -20 -8 -20 105 0 112 10
162 31 150 5 -4 9 -60 9 -125z m1007 106 c2 -2 5 -151 4 -223 -1 -46 -4 -53
-21 -53 -17 0 -24 9 -22 30 0 3 -11 6 -24 6 -28 2 -33 -12 -6 -19 10 -3 6 -5
-10 -6 l-28 -1 0 83 c-1 45 -3 108 -7 140 l-6 59 59 -7 c33 -4 60 -8 61 -9z
m-457 -148 c0 -37 -4 -69 -9 -72 -5 -3 -9 -29 -9 -57 -1 -28 -3 -54 -6 -57 -3
-3 -6 62 -6 143 0 133 2 147 15 129 9 -12 14 -43 15 -86z m1427 46 c-3 -3 -12
-4 -19 -1 -8 3 -5 6 6 6 11 1 17 -2 13 -5z m-2271 -241 c-3 -7 -10 -13 -16
-13 -15 0 -13 223 3 239 10 10 13 -10 15 -100 1 -62 0 -119 -2 -126z m2315
200 c7 -18 6 -29 -1 -37 -9 -8 -11 -7 -9 4 2 8 -2 25 -9 38 -8 14 -9 22 -2 22
6 0 15 -12 21 -27z m-2515 -280 c-3 -7 -10 -13 -16 -13 -11 0 -4 203 8 230 8
17 15 -197 8 -217z m481 -10 c-2 -32 -3 -8 -3 52 0 61 1 87 3 58 2 -29 2 -78
0 -110z m573 85 c0 -7 -34 -25 -75 -39 -64 -22 -75 -24 -73 -10 2 10 29 24 68
38 79 26 80 26 80 11z m1907 -93 c2 -25 1 -27 -7 -10 -7 17 -9 18 -9 3 -1 -11
-9 -18 -21 -18 -14 0 -20 7 -20 24 0 46 54 47 57 1z m-2 -45 c28 -5 77 -9 110
-9 33 -1 70 -4 83 -7 23 -7 31 -34 10 -34 -14 0 -264 30 -293 35 -11 2 -30 4
-42 4 -13 1 -23 4 -23 9 0 16 45 28 75 19 17 -5 53 -13 80 -17z m-2467 -52
c-4 -11 -88 -46 -115 -47 -33 -2 -7 20 45 37 71 24 75 25 70 10z m3199 -4 c-3
-3 -12 -4 -19 -1 -8 3 -5 6 6 6 11 1 17 -2 13 -5z m-352 -64 c-16 -4 -39 -8
-50 -8 l-20 -1 20 9 c11 5 34 8 50 8 l30 0 -30 -8z m-3135 -29 c0 -10 -83 -41
-109 -41 -24 0 -1 18 44 34 48 17 65 19 65 7z m3526 -40 c13 -16 8 -45 -11
-61 -9 -7 -15 -3 -23 16 -7 15 -17 22 -24 18 -7 -5 -9 0 -6 14 4 12 2 20 -3
16 -5 -3 -9 0 -9 5 0 6 7 11 15 11 8 0 15 5 15 11 0 12 26 -5 46 -30z m64 -13
c-1 -28 -2 -30 -11 -15 -6 10 -8 25 -5 33 9 24 16 16 16 -18z m-190 -7 c0 -5
-6 -14 -14 -20 -16 -13 -32 2 -21 19 8 12 35 13 35 1z m46 -84 c-2 -9 0 -15 4
-12 5 3 8 -3 7 -13 -1 -19 -27 -27 -27 -9 0 5 -6 7 -13 4 -16 -6 -15 26 1 66
7 16 12 36 13 45 1 9 5 -1 10 -23 6 -22 8 -48 5 -58z m-3656 75 c0 -5 -23 -15
-51 -24 -35 -12 -49 -13 -46 -5 6 20 97 47 97 29z m3510 1 c0 -5 -4 -14 -9
-21 -6 -10 -10 -9 -14 7 -3 14 0 21 9 21 8 0 14 -3 14 -7z m254 -20 c-4 -21
-3 -24 4 -14 8 11 12 5 17 -25 3 -21 8 -47 10 -57 5 -24 -4 -49 -15 -42 -5 3
-6 14 -3 25 3 12 0 20 -7 20 -9 0 -11 10 -6 32 10 48 -1 29 -23 -40 -10 -34
-17 -72 -13 -84 3 -14 1 -19 -6 -14 -7 4 -12 2 -12 -3 0 -6 -5 -11 -11 -11 -8
0 -10 20 -6 66 3 41 1 61 -4 53 -6 -10 -8 -7 -7 11 1 14 -2 40 -6 58 -5 21 -4
32 3 32 10 0 12 -6 15 -50 1 -8 5 -22 11 -30 5 -8 10 -18 10 -22 0 -3 3 -10 8
-14 10 -11 9 14 -3 36 -8 15 -4 28 17 59 16 22 29 40 31 41 1 0 0 -12 -4 -27z
m-354 -23 c7 -16 15 -30 19 -30 12 0 5 -47 -13 -85 -11 -23 -16 -48 -12 -66 7
-37 0 -36 -41 3 -24 24 -33 41 -33 66 0 18 3 31 8 29 4 -3 8 9 9 26 1 30 1 31
-8 8 -16 -40 -31 -54 -40 -39 -6 9 -9 6 -9 -9 0 -12 5 -25 10 -28 12 -8 13
-45 1 -45 -10 0 -21 34 -21 68 0 13 -4 21 -9 17 -5 -3 -12 -1 -16 5 -3 5 -1
10 5 10 8 0 7 6 -1 21 -9 17 -8 25 5 37 15 15 16 13 16 -25 0 -35 3 -40 19
-36 15 4 17 10 10 46 -4 23 -5 44 -3 46 2 2 4 -2 4 -9 0 -9 6 -8 20 5 11 10
20 15 20 11 0 -4 8 -3 17 3 22 12 28 8 43 -29z m140 3 c0 -22 -2 -25 -10 -13
-13 20 -13 40 0 40 6 0 10 -12 10 -27z m295 -40 c-1 -38 -6 -68 -11 -68 -5 0
-10 30 -12 68 -2 52 0 67 11 67 11 0 14 -15 12 -67z m-408 25 c-3 -8 -6 -5 -6
6 -1 11 2 17 5 13 3 -3 4 -12 1 -19z m157 -15 c-10 -15 -19 -31 -19 -35 0 -3
-3 -9 -6 -12 -3 -4 -6 6 -5 21 1 16 5 27 11 25 5 -2 13 7 17 19 5 12 11 19 15
16 3 -4 -3 -19 -13 -34z m-64 5 c0 -16 -3 -19 -11 -11 -6 6 -8 16 -5 22 11 17
16 13 16 -11z m-289 -35 c18 -71 19 -85 3 -72 -8 6 -14 20 -14 31 0 11 -4 28
-10 38 -5 10 -7 26 -4 35 8 21 14 14 25 -32z m249 6 c0 -5 -4 -9 -10 -9 -5 0
-10 7 -10 16 0 8 5 12 10 9 6 -3 10 -10 10 -16z m-2210 -28 c0 -14 8 -21 28
-24 15 -2 5 -4 -23 -5 -27 0 -44 2 -37 5 6 2 12 13 12 24 0 10 5 19 10 19 6 0
10 -9 10 -19z m2206 -36 c2 -22 0 -24 -12 -14 -8 6 -14 23 -14 37 0 34 22 14
26 -23z m281 23 c-1 -33 4 -49 13 -43 6 4 10 -7 10 -24 0 -17 -3 -31 -7 -31
-5 0 -8 -14 -9 -30 -1 -17 -9 -38 -18 -48 -19 -21 -21 -37 -4 -26 7 4 8 3 4
-5 -4 -6 -12 -9 -17 -5 -5 3 -16 0 -24 -6 -13 -11 -13 -7 0 23 22 52 18 59 -7
12 -12 -22 -23 -35 -25 -28 -2 7 0 20 5 30 6 10 8 32 6 48 -3 28 -3 28 5 5 9
-24 9 -24 10 -2 1 12 7 22 14 22 11 1 57 34 57 42 0 2 -10 4 -21 5 -29 3 -31
5 -18 41 11 32 27 44 26 20z m-98 -78 c-1 -44 -5 -95 -9 -113 -7 -27 -8 -23
-9 26 -1 32 -5 56 -9 53 -5 -3 -7 -22 -6 -43 3 -36 -9 -31 -18 7 -2 8 -7 18
-12 21 -4 4 -5 16 -1 28 5 17 10 19 26 11 13 -7 19 -7 19 0 0 5 -6 10 -14 10
-8 0 -18 5 -21 10 -7 12 31 70 46 70 6 0 9 -34 8 -80z m-242 -12 c-2 -13 -4
-5 -4 17 -1 22 1 32 4 23 2 -10 2 -28 0 -40z m111 21 c2 -23 2 -23 -13 -5 -18
24 -20 39 -2 34 6 -3 13 -15 15 -29z m-272 9 c5 4 6 3 2 -2 -4 -5 1 -21 12
-36 24 -33 26 -54 5 -46 -8 3 -15 1 -15 -3 0 -14 27 -20 38 -9 6 6 12 6 17 -1
3 -7 1 -10 -6 -9 -8 2 -13 -11 -15 -36 -1 -21 -8 -44 -14 -50 -6 -6 -10 -6 -8
-1 2 6 -1 11 -7 12 -11 2 -35 86 -42 153 -5 38 -3 43 9 32 8 -6 19 -8 24 -4z
m219 -24 c-21 -21 -19 -33 5 -27 27 7 27 -23 1 -37 -24 -12 -41 -13 -22 -1 11
7 12 13 3 23 -6 7 -10 28 -10 45 1 28 3 31 20 22 17 -9 17 -12 3 -25z m-145
-34 c0 -13 -1 -13 -10 0 -5 8 -10 22 -10 30 0 13 1 13 10 0 5 -8 10 -22 10
-30z m53 -9 c16 -17 23 -32 17 -36 -5 -3 -10 0 -10 7 -1 7 -6 3 -13 -10 -10
-17 -15 -20 -25 -10 -17 17 -15 31 3 24 14 -5 14 -4 0 16 -31 46 -13 52 28 9z
m177 14 c0 -8 -4 -15 -10 -15 -5 0 -10 7 -10 15 0 8 5 15 10 15 6 0 10 -7 10
-15z m-1090 -30 c0 -14 -2 -25 -4 -25 -2 0 -6 11 -8 25 -3 14 -1 25 3 25 5 0
9 -11 9 -25z m60 15 c0 -5 -4 -10 -10 -10 -5 0 -10 5 -10 10 0 6 5 10 10 10 6
0 10 -4 10 -10z m987 -73 c-3 -22 -1 -51 4 -64 5 -15 5 -22 0 -18 -5 3 -12 19
-16 35 -4 17 -10 30 -15 30 -10 0 -7 -46 3 -57 13 -12 7 -25 -6 -14 -8 6 -16
9 -18 7 -2 -2 -4 15 -4 39 0 24 4 47 9 52 5 5 6 2 1 -6 -5 -10 -4 -12 4 -7 6
4 9 12 6 17 -9 13 1 26 21 26 13 0 15 -8 11 -40z m-115 -9 c-15 -15 -24 -6
-16 16 5 12 10 14 17 7 8 -8 8 -14 -1 -23z m196 8 c-1 -13 4 -32 12 -42 14
-18 14 -18 -8 0 -22 20 -31 66 -11 66 6 0 9 -11 7 -24z m-44 -15 c4 -5 0 -12
-6 -14 -8 -4 -6 -8 7 -12 22 -7 31 -40 13 -51 -7 -4 -8 -2 -4 4 4 7 2 12 -4
12 -6 0 -8 4 -5 10 3 6 -1 7 -9 4 -12 -5 -16 1 -16 25 0 30 13 41 24 22z
m-224 -11 c0 -5 -2 -10 -4 -10 -3 0 -8 5 -11 10 -3 6 -1 10 4 10 6 0 11 -4 11
-10z m50 -54 c-5 -14 -11 -26 -14 -26 -10 0 -12 38 -4 60 8 22 10 23 19 8 6
-10 5 -26 -1 -42z m-2097 37 c-7 -2 -19 -2 -25 0 -7 3 -2 5 12 5 14 0 19 -2
13 -5z m2437 -13 c-6 -11 -15 -20 -20 -20 -13 0 -12 8 3 25 18 21 29 18 17 -5z
m-400 -21 c0 -4 -9 -9 -19 -12 -17 -4 -18 -2 -9 19 8 18 14 21 20 12 4 -7 8
-16 8 -19z m14 15 c3 -8 2 -12 -4 -9 -6 3 -10 10 -10 16 0 14 7 11 14 -7z
m443 -26 c40 -45 38 -52 -35 -113 -23 -19 -23 -19 -16 1 4 10 12 24 18 29 11
9 36 60 36 71 0 3 -9 2 -20 -1 -16 -5 -20 -2 -20 14 0 27 12 27 37 -1z m-97
-7 c0 -5 3 -16 6 -25 4 -10 1 -16 -9 -16 -9 0 -14 10 -14 25 0 14 3 25 8 25 5
0 9 -4 9 -9z m-186 -41 l7 -25 -15 25 c-17 28 -21 50 -7 35 5 -6 12 -21 15
-35z m26 14 c0 -8 -4 -12 -10 -9 -5 3 -10 10 -10 16 0 5 5 9 10 9 6 0 10 -7
10 -16z m222 -15 c-2 -13 -11 -31 -19 -39 -14 -13 -15 -13 -9 3 3 10 6 30 6
44 0 15 5 23 13 20 6 -2 11 -15 9 -28z m-298 -1 c9 -34 7 -48 -5 -48 -16 0
-38 31 -39 53 0 26 36 22 44 -5z m141 12 c-3 -5 -12 -10 -18 -10 -7 0 -6 4 3
10 19 12 23 12 15 0z m-255 -10 c0 -5 -5 -10 -11 -10 -5 0 -7 5 -4 10 3 6 8
10 11 10 2 0 4 -4 4 -10z m280 -17 c0 -20 -44 -66 -54 -56 -11 11 -6 23 9 23
8 0 15 8 15 18 0 10 3 22 7 25 12 12 23 7 23 -10z m185 -47 c-16 -24 -35 -35
-35 -19 0 10 43 54 48 49 2 -2 -4 -16 -13 -30z m-405 12 c0 -11 -38 -10 -44 1
-3 5 5 8 19 7 14 0 25 -4 25 -8z m134 -13 c-4 -8 -8 -15 -10 -15 -2 0 -4 7 -4
15 0 8 4 15 10 15 5 0 7 -7 4 -15z m-150 -14 c3 -4 -6 -6 -19 -3 -14 2 -25 6
-25 8 0 8 39 4 44 -5z m176 -36 c0 -5 -5 -3 -10 5 -5 8 -10 20 -10 25 0 6 5 3
10 -5 5 -8 10 -19 10 -25z m48 24 c-2 -3 3 -14 11 -23 10 -12 11 -20 4 -27 -8
-8 -13 -7 -18 2 -5 8 -4 10 3 5 7 -4 12 -2 12 3 0 6 -9 11 -20 11 -19 0 -27
20 -13 34 8 7 26 3 21 -5z m152 -6 c0 -9 -3 -13 -7 -10 -3 4 -12 -1 -19 -11
-7 -9 -16 -14 -20 -10 -4 4 4 16 17 27 29 25 29 25 29 4z m-331 -2 c21 -14 5
-44 -19 -36 -11 4 -20 2 -20 -4 0 -6 -5 -11 -11 -11 -5 0 -7 5 -3 11 4 7 1 10
-7 7 -8 -3 -13 -11 -11 -17 1 -7 -2 -9 -9 -5 -9 5 -5 13 10 26 15 11 18 18 10
19 -8 1 -3 5 11 9 34 11 33 11 49 1z m-105 -29 c2 -4 1 -14 -4 -21 -10 -17
-31 -5 -23 14 6 16 19 20 27 7z m243 -17 c15 -14 21 -22 11 -19 -10 3 -17 -1
-20 -12 -3 -17 -4 -17 -20 0 -19 18 -24 56 -9 56 6 0 23 -11 38 -25z m183 5
c-8 -5 -19 -10 -25 -10 -5 0 -3 5 5 10 8 5 20 10 25 10 6 0 3 -5 -5 -10z
m-290 -20 c-20 -13 -43 -13 -35 0 3 6 16 10 28 10 18 0 19 -2 7 -10z m-52 -28
c9 -6 5 -12 -15 -20 -25 -11 -26 -11 -10 2 18 14 18 15 -5 19 -19 3 -19 4 -3
5 11 1 26 -2 33 -6z m202 -63 c0 -25 -22 -38 -48 -28 -23 9 -27 30 -7 31 6 0
16 10 24 20 11 16 15 17 22 7 5 -8 9 -21 9 -30z m44 -31 c-2 -24 -6 -99 -9
-168 -3 -69 -7 -136 -9 -150 -3 -14 -5 -37 -5 -52 -1 -23 -6 -28 -25 -28 -26
0 -27 1 -41 162 -7 72 8 143 27 132 6 -4 8 -2 5 3 -4 6 6 34 22 63 16 29 27
59 24 67 -3 7 -1 13 5 13 5 0 8 -19 6 -42z m186 25 c-1 -16 -28 -43 -44 -43
-19 0 -21 21 -4 38 13 13 48 16 48 5z m-2502 -20 c-21 -2 -55 -2 -75 0 -21 2
-4 4 37 4 41 0 58 -2 38 -4z m2213 -33 c6 0 7 5 4 10 -7 11 -3 12 18 4 13 -5
13 -9 0 -35 -8 -16 -16 -29 -18 -29 -11 0 -32 57 -27 70 5 12 7 12 10 -2 2
-10 8 -18 13 -18z m286 8 c-3 -8 -6 -5 -6 6 -1 11 2 17 5 13 3 -3 4 -12 1 -19z
m-1450 6 c-3 -3 -12 -4 -19 -1 -8 3 -5 6 6 6 11 1 17 -2 13 -5z m-1044 -11
c-18 -2 -48 -2 -65 0 -18 2 -4 4 32 4 36 0 50 -2 33 -4z m-293 -23 c0 -15 -31
-27 -92 -34 -46 -5 -58 -3 -58 8 0 8 20 17 53 23 71 14 97 15 97 3z m2385 -15
c22 -21 25 -33 25 -92 -1 -63 -2 -66 -16 -48 -8 11 -21 42 -29 69 -12 39 -12
52 -2 64 10 13 9 15 -5 9 -12 -4 -18 -2 -18 8 0 22 18 18 45 -10z m266 -75
c-10 -25 -10 -24 -10 6 -1 17 2 47 7 65 l7 34 3 -40 c2 -23 -1 -52 -7 -65z
m-386 30 c4 -18 4 -21 -4 -11 -8 12 -12 12 -25 2 -14 -12 -16 -8 -16 30 0 43
0 43 19 24 10 -11 22 -31 26 -45z m-2575 20 c0 -13 -7 -20 -19 -20 -10 0 -39
-3 -65 -6 -37 -5 -46 -4 -46 8 0 10 17 18 53 25 76 15 77 15 77 -7z m645 10
c4 -6 -10 -10 -34 -10 -22 0 -43 5 -46 10 -4 6 10 10 34 10 22 0 43 -4 46 -10z
m-895 -40 c0 -9 -35 -17 -97 -22 -37 -3 -45 14 -11 24 36 10 108 9 108 -2z
m2837 -40 c-3 -11 -2 -18 3 -15 4 3 10 -1 13 -8 3 -6 17 -38 31 -69 14 -32 24
-58 22 -58 -9 0 -116 133 -116 145 0 12 15 20 44 24 4 0 6 -8 3 -19z m-3357
-14 c0 -9 -17 -15 -47 -19 -97 -11 -63 16 40 32 4 0 7 -5 7 -13z m3290 -36 c0
-5 -15 -10 -34 -10 -19 0 -38 5 -41 10 -4 6 10 10 34 10 23 0 41 -4 41 -10z
m-1960 -10 c-8 -5 -40 -9 -70 -9 -50 2 -52 2 -20 9 55 12 108 12 90 0z m1953
-17 c-7 -2 -19 -2 -25 0 -7 3 -2 5 12 5 14 0 19 -2 13 -5z m42 -13 c3 -5 -1
-10 -10 -10 -9 0 -13 5 -10 10 3 6 8 10 10 10 2 0 7 -4 10 -10z m-285 -46 c0
-8 -4 -12 -10 -9 -5 3 -10 13 -10 21 0 8 5 12 10 9 6 -3 10 -13 10 -21z m360
-79 c0 -47 -7 -43 -11 5 -5 57 -14 59 -20 5 l-6 -50 -1 52 c-1 28 -6 55 -12
58 -5 3 -10 13 -10 21 0 9 12 1 30 -19 22 -26 30 -45 30 -72z m-3473 63 c-3
-7 -5 -2 -5 12 0 14 2 19 5 13 2 -7 2 -19 0 -25z m1016 15 c15 -9 7 -34 -10
-31 -10 2 -17 10 -15 16 1 7 -8 12 -20 12 -19 0 -20 -2 -8 -10 16 -11 9 -13
-30 -11 -14 1 -38 -2 -52 -8 -31 -12 -78 -3 -56 10 7 5 30 9 51 9 27 0 37 4
37 16 0 14 8 15 48 9 26 -4 50 -9 55 -12z m222 -18 c0 -30 -20 -34 -28 -5 -4
16 3 26 23 29 3 1 5 -10 5 -24z m1905 -1 c0 -8 -4 -14 -10 -14 -5 0 -10 9 -10
21 0 11 5 17 10 14 6 -3 10 -13 10 -21z m468 -29 c0 -16 -2 -15 -8 5 -11 34
-11 60 0 35 5 -11 8 -29 8 -40z m-2448 24 c0 -16 -4 -19 -20 -14 -16 5 -19 3
-13 -12 6 -16 5 -16 -10 -4 -9 7 -14 17 -11 22 3 5 -2 9 -10 9 -9 0 -16 5 -16
10 0 6 18 10 40 10 34 0 40 -3 40 -21z m2010 -22 c0 -18 -2 -19 -10 -7 -13 20
-13 43 0 35 6 -3 10 -16 10 -28z m17 -19 c-3 -7 -5 -2 -5 12 0 14 2 19 5 13 2
-7 2 -19 0 -25z m220 -30 c-2 -13 -4 -3 -4 22 0 25 2 35 4 23 2 -13 2 -33 0
-45z m-157 12 c0 -5 -4 -12 -10 -15 -5 -3 -10 1 -10 10 0 9 -4 13 -10 10 -5
-3 -10 1 -10 10 0 13 4 14 20 5 11 -6 20 -15 20 -20z m-2263 -7 c4 -10 11 -22
17 -26 8 -6 7 -10 -1 -14 -24 -9 -14 -33 15 -34 15 0 22 -3 16 -5 -6 -3 -9
-27 -6 -64 3 -40 1 -60 -7 -60 -6 0 -11 7 -11 15 0 8 -9 15 -20 15 -15 0 -20
7 -20 29 0 17 5 33 10 36 6 3 10 12 10 18 0 9 -2 9 -8 0 -8 -12 -62 -6 -62 7
0 9 -45 22 -97 28 -16 3 -4 42 13 42 8 0 14 -5 14 -11 0 -8 6 -7 17 2 12 11
17 11 20 2 4 -10 8 -9 19 1 8 8 14 19 14 25 0 19 60 13 67 -6z m2510 -15 c-3
-7 -5 -2 -5 12 0 14 2 19 5 13 2 -7 2 -19 0 -25z m-2327 8 c0 -8 -4 -18 -10
-21 -5 -3 -10 3 -10 14 0 12 5 21 10 21 6 0 10 -6 10 -14z m78 -9 c2 -12 -3
-17 -17 -17 -15 0 -21 6 -21 21 0 25 33 22 38 -4z m2062 -23 c0 -8 -4 -14 -10
-14 -5 0 -10 9 -10 21 0 11 5 17 10 14 6 -3 10 -13 10 -21z m-370 -60 c0 -8
-33 13 -65 41 -25 22 -23 22 18 -5 26 -17 47 -33 47 -36z m400 40 c0 -8 -4
-12 -10 -9 -5 3 -10 13 -10 21 0 8 5 12 10 9 6 -3 10 -13 10 -21z m367 11 c0
-8 -6 -15 -14 -15 -7 0 -13 7 -13 15 0 8 6 15 13 15 8 0 14 -7 14 -15z m-1087
-11 c0 -12 -4 -14 -12 -7 -7 6 -20 13 -28 16 -9 3 -3 6 13 6 19 1 27 -4 27
-15z m-1450 2 c0 -3 -4 -8 -10 -11 -5 -3 -10 -1 -10 4 0 6 5 11 10 11 6 0 10
-2 10 -4z m73 -15 c-6 -22 -29 -35 -38 -21 -4 6 1 10 9 10 10 0 13 6 10 15 -4
9 0 15 9 15 10 0 13 -7 10 -19z m2127 -7 c0 -8 -4 -12 -10 -9 -5 3 -10 13 -10
21 0 8 5 12 10 9 6 -3 10 -13 10 -21z m140 22 c0 -3 -4 -8 -10 -11 -5 -3 -10
-1 -10 4 0 6 5 11 10 11 6 0 10 -2 10 -4z m-940 -16 c0 -5 -4 -10 -10 -10 -5
0 -10 5 -10 10 0 6 5 10 10 10 6 0 10 -4 10 -10z m830 -21 c0 -6 -4 -7 -10 -4
-5 3 -10 11 -10 16 0 6 5 7 10 4 6 -3 10 -11 10 -16z m-720 -4 c17 -21 4 -35
-33 -35 -28 0 -33 4 -35 25 -1 21 2 25 27 25 16 0 34 -7 41 -15z m390 11 c0
-3 -4 -8 -10 -11 -5 -3 -10 -1 -10 4 0 6 5 11 10 11 6 0 10 -2 10 -4z m630 -6
c0 -5 -5 -10 -11 -10 -5 0 -7 5 -4 10 3 6 8 10 11 10 2 0 4 -4 4 -10z m204 -5
c11 -30 -4 -43 -50 -43 -24 1 -44 5 -44 10 0 4 16 8 35 8 19 0 35 5 35 10 0 6
-5 10 -11 10 -5 0 -7 5 -4 10 9 15 32 12 39 -5z m-2739 -5 c3 -5 1 -10 -4 -10
-6 0 -11 5 -11 10 0 6 2 10 4 10 3 0 8 -4 11 -10z m2262 -22 c-3 -8 -6 -5 -6
6 -1 11 2 17 5 13 3 -3 4 -12 1 -19z m30 -20 c-3 -8 -6 -5 -6 6 -1 11 2 17 5
13 3 -3 4 -12 1 -19z m-837 -13 c-13 -16 -40 -20 -40 -7 0 14 12 22 33 22 16
0 17 -3 7 -15z m146 -7 c16 -17 16 -18 -4 -18 -12 0 -22 6 -23 13 0 10 -2 10
-6 0 -6 -15 -79 -17 -88 -3 -12 20 7 30 56 29 33 -2 54 -8 65 -21z m739 2 c-3
-5 -10 -10 -16 -10 -5 0 -9 5 -9 10 0 6 7 10 16 10 8 0 12 -4 9 -10z m330 -15
c6 -2 -11 -4 -37 -4 -27 -1 -48 3 -48 7 0 7 62 5 85 -3z m-1157 -39 c3 -15 0
-17 -20 -11 -30 10 -31 11 -23 25 10 17 39 8 43 -14z m70 15 c19 -12 17 -24
-7 -33 -26 -9 -51 -1 -51 17 0 11 11 18 40 24 3 0 11 -3 18 -8z m565 2 c-7 -2
-21 -2 -30 0 -10 3 -4 5 12 5 17 0 24 -2 18 -5z m-730 -10 c-7 -2 -19 -2 -25
0 -7 3 -2 5 12 5 14 0 19 -2 13 -5z m231 -8 c-4 -8 -14 -15 -23 -15 -10 0 -18
7 -18 15 0 9 10 15 23 15 17 0 22 -4 18 -15z m976 7 c0 -4 -6 -14 -12 -21 -11
-11 -10 -13 5 -8 9 4 17 2 17 -3 0 -6 -18 -10 -40 -10 -36 0 -40 3 -40 25 0
22 4 25 35 25 19 0 35 -4 35 -8z m-943 -18 c-3 -3 -12 -4 -19 -1 -8 3 -5 6 6
6 11 1 17 -2 13 -5z m523 -20 c-59 -8 -138 -8 -133 -1 2 4 39 6 81 6 42 -1 66
-3 52 -5z m-640 -14 c0 -5 -4 -10 -9 -10 -6 0 -13 5 -16 10 -3 6 1 10 9 10 9
0 16 -4 16 -10z m77 -9 c1 -15 -4 -19 -25 -17 -39 4 -43 36 -5 36 21 0 29 -5
30 -19z m91 -2 c12 -19 11 -20 -30 -17 -31 2 -44 8 -46 21 -5 26 59 24 76 -4z
m505 -26 c-13 -2 -33 -2 -45 0 -13 2 -3 4 22 4 25 0 35 -2 23 -4z m-603 -24
c0 -6 -9 -13 -20 -16 -42 -11 -17 -22 58 -25 55 -2 76 -7 75 -15 -2 -7 2 -13
7 -13 6 0 10 7 10 15 0 9 6 12 16 8 8 -3 13 -12 10 -19 -3 -8 -1 -14 4 -14 6
0 10 5 10 10 0 6 5 10 11 10 6 0 9 -7 5 -15 -4 -11 1 -15 17 -15 17 0 25 8 32
33 13 44 29 37 33 -15 2 -30 6 -38 13 -28 7 13 9 12 9 -2 0 -10 -7 -18 -16
-18 -12 0 -15 -6 -10 -24 7 -28 -6 -40 -33 -31 -16 5 -19 12 -14 39 5 32 4 33
-33 39 -22 4 -52 7 -67 7 -15 0 -46 9 -67 19 -22 11 -40 15 -40 10 0 -13 -68
-11 -76 3 -4 6 -2 14 5 16 9 3 5 12 -10 28 l-22 24 46 0 c27 0 47 -5 47 -11z
m60 -9 c0 -15 -7 -20 -25 -20 -18 0 -25 5 -25 20 0 15 7 20 25 20 18 0 25 -5
25 -20z m80 11 c0 -26 -46 -38 -62 -16 -14 19 -8 25 27 25 19 0 35 -4 35 -9z
m215 -92 c-6 -57 -4 -73 9 -87 14 -16 14 -18 -3 -18 -16 0 -19 10 -20 69 -2
66 4 107 16 107 3 0 2 -32 -2 -71z m268 64 c-13 -2 -35 -2 -50 0 -16 2 -5 4
22 4 28 0 40 -2 28 -4z m-703 -20 c2 -2 -2 -8 -10 -13 -17 -10 -53 7 -44 21 5
9 41 4 54 -8z m-2543 -9 c-3 -3 -12 -4 -19 -1 -8 3 -5 6 6 6 11 1 17 -2 13 -5z
m2945 -60 c-8 -41 -22 -26 -22 24 1 44 2 46 14 23 7 -12 11 -34 8 -47z m-535
50 c-3 -3 -12 -4 -19 -1 -8 3 -5 6 6 6 11 1 17 -2 13 -5z m841 -11 c-16 -2
-40 -2 -55 0 -16 2 -3 4 27 4 30 0 43 -2 28 -4z m447 -22 c-12 -11 -125 -19
-125 -9 0 6 30 11 110 16 15 1 20 -2 15 -7z m68 2 c-7 -2 -19 -2 -25 0 -7 3
-2 5 12 5 14 0 19 -2 13 -5z m-498 -32 c-12 -11 -223 -27 -213 -16 4 4 51 11
105 15 54 4 102 8 108 9 5 0 5 -2 0 -8z m200 -52 c4 -6 9 -38 11 -72 2 -34 7
-68 10 -76 3 -10 -3 -8 -17 5 -12 10 -19 13 -15 7 4 -8 1 -13 -8 -13 -12 0
-16 11 -16 49 0 27 -3 63 -6 80 -6 27 -4 31 14 31 12 0 24 -5 27 -11z m-182
-19 c7 -8 37 -90 37 -100 0 -6 -4 -10 -10 -10 -5 0 -9 5 -7 11 1 6 -4 14 -12
17 -10 3 -13 -2 -9 -22 4 -21 3 -24 -8 -15 -8 6 -21 8 -30 5 -10 -4 -22 0 -29
10 -8 12 -18 15 -31 9 -10 -4 -22 -8 -25 -7 -3 0 -40 2 -83 3 -66 2 -76 4 -70
18 23 57 26 73 16 80 -5 3 50 6 123 6 73 0 135 -2 138 -5z m81 -25 c-4 -8 -8
-15 -10 -15 -2 0 -4 7 -4 15 0 8 4 15 10 15 5 0 7 -7 4 -15z m15 -47 c0 -31
-1 -31 -10 -10 -5 13 -7 28 -3 33 10 16 14 9 13 -23z m-377 -67 c-3 -9 -1 -12
5 -8 14 9 43 -2 43 -14 0 -6 -7 -6 -18 0 -10 5 -24 6 -32 1 -19 -12 -36 -3
-37 20 -1 15 4 19 22 18 15 -2 21 -7 17 -17z m99 -4 c-12 -12 -45 -1 -37 12 3
5 15 7 27 4 13 -4 17 -9 10 -16z m536 -26 c-5 -2 -13 3 -18 10 -15 24 -10 30
9 12 10 -10 14 -20 9 -22z m38 29 c3 -5 1 -10 -4 -10 -6 0 -11 5 -11 10 0 6 2
10 4 10 3 0 8 -4 11 -10z m-1002 -7 c-7 -2 -19 -2 -25 0 -7 3 -2 5 12 5 14 0
19 -2 13 -5z m-1 -21 c-7 -5 -10 -16 -6 -25 4 -12 1 -17 -12 -17 -15 0 -16 2
-5 9 10 6 10 10 1 16 -9 6 -9 10 1 16 8 5 19 9 24 9 6 0 4 -4 -3 -8z m775 -8
c-3 -3 -12 -4 -19 -1 -8 3 -5 6 6 6 11 1 17 -2 13 -5z m-732 -14 c-3 -5 -2
-10 4 -10 6 0 10 -15 9 -34 -1 -27 -5 -32 -20 -28 -23 6 -23 18 0 31 16 9 16
10 0 16 -17 7 -14 35 4 35 5 0 6 -4 3 -10z m72 -40 c2 -26 -1 -30 -22 -30 -13
0 -27 5 -30 10 -3 6 0 10 9 10 8 0 13 7 11 18 -3 23 3 32 18 26 7 -2 13 -18
14 -34z m113 36 c0 -2 -7 -6 -15 -10 -8 -3 -15 -1 -15 4 0 6 7 10 15 10 8 0
15 -2 15 -4z m-45 -56 c15 -29 15 -30 -5 -30 -12 0 -29 7 -38 16 -15 15 -14
18 3 30 24 18 22 19 40 -16z m-355 2 c0 -19 -23 -32 -37 -21 -20 17 -15 29 12
29 14 0 25 -4 25 -8z m441 -12 c16 0 29 -4 29 -8 0 -5 -20 -8 -45 -8 -31 1
-45 5 -45 15 0 8 6 11 16 7 9 -3 29 -6 45 -6z m319 -5 c0 -1 -7 -8 -15 -15
-13 -10 -15 -9 -15 8 0 15 5 20 15 16 8 -4 15 -7 15 -9z m-650 -14 c0 -10 -26
-9 -36 2 -4 4 2 7 14 7 12 0 22 -4 22 -9z m123 -51 c4 -17 2 -18 -13 -10 -28
15 -34 30 -12 30 11 0 22 -9 25 -20z m421 -1 c-4 -8 4 -9 27 -5 44 9 17 -9
-28 -19 -26 -5 -33 -3 -33 8 0 9 8 18 18 20 9 3 18 5 20 6 2 0 0 -4 -4 -10z
m-59 -40 c-27 -11 -77 -11 -71 0 3 4 25 8 48 8 31 0 38 -2 23 -8z m-1322 -49
c-3 -11 -7 -20 -9 -20 -2 0 -4 9 -4 20 0 11 4 20 9 20 5 0 7 -9 4 -20z m-62
-17 c-8 -15 -10 -15 -11 -2 0 17 10 32 18 25 2 -3 -1 -13 -7 -23z m1066 21
c-3 -4 -2 -15 4 -25 8 -16 6 -19 -11 -19 -15 0 -20 7 -20 25 0 17 6 25 17 25
9 0 13 -3 10 -6z m51 -22 c5 -31 -24 -29 -31 3 -3 20 -1 25 12 23 9 -2 17 -13
19 -26z m87 18 c-3 -5 -10 -10 -16 -10 -5 0 -9 5 -9 10 0 6 7 10 16 10 8 0 12
-4 9 -10z m-180 -11 c4 -6 -1 -17 -11 -25 -11 -9 -14 -13 -8 -10 7 3 11 -13
13 -45 2 -43 0 -49 -19 -49 -25 0 -28 41 -4 64 8 9 11 16 6 16 -5 0 -9 14 -8
30 1 30 18 40 31 19z m140 1 c3 -5 2 -10 -4 -10 -5 0 -11 -8 -13 -17 -3 -13
-6 -10 -10 10 -5 27 13 39 27 17z m-209 -32 l-16 -22 0 22 c0 13 4 20 10 17 6
-3 10 -1 10 6 0 7 3 10 6 6 3 -3 -1 -16 -10 -29z m-41 4 c-3 -3 -11 0 -18 7
-9 10 -8 11 6 5 10 -3 15 -9 12 -12z m-295 -34 c0 -13 -23 -5 -28 10 -2 7 2
10 12 6 9 -3 16 -11 16 -16z m40 -7 c-13 -25 -30 -28 -30 -5 0 8 5 12 10 9 6
-3 13 1 16 10 4 9 9 14 11 11 3 -2 0 -14 -7 -25z m151 0 c-8 -5 -9 -11 -3 -15
16 -9 41 4 36 19 -7 18 15 30 29 16 6 -6 7 -11 2 -11 -6 0 -11 -14 -12 -30 -1
-17 3 -30 8 -30 6 0 9 6 6 14 -3 8 3 22 14 32 17 15 22 16 29 4 11 -18 -7 -53
-23 -44 -9 5 -8 3 1 -7 18 -20 14 -45 -8 -46 -14 -1 -20 5 -20 20 -1 22 -1 22
-13 2 -7 -12 -18 -21 -26 -20 -16 0 -24 32 -10 41 12 7 12 24 0 24 -5 0 -12
-14 -16 -31 -6 -28 -29 -48 -41 -37 -6 7 17 99 30 116 6 9 12 10 20 2 8 -8 7
-13 -3 -19z m109 25 c0 -2 -7 -6 -15 -10 -8 -3 -15 -1 -15 4 0 6 7 10 15 10 8
0 15 -2 15 -4z m53 -19 c-4 -7 -6 -22 -4 -34 1 -14 -3 -23 -11 -23 -10 0 -9
-3 2 -11 12 -8 12 -10 -5 -7 -25 4 -31 40 -11 61 9 9 16 21 16 27 0 6 5 8 10
5 6 -4 7 -12 3 -18z m150 -8 c4 -15 2 -18 -7 -10 -7 6 -16 8 -19 4 -4 -3 -7 3
-7 15 0 27 26 19 33 -9z m-57 9 c4 -7 7 -28 5 -47 -1 -19 4 -38 11 -42 22 -14
30 -10 13 7 -12 12 -13 19 -4 30 6 8 15 14 20 14 13 0 11 -77 -1 -85 -6 -4 -8
-10 -5 -15 3 -5 1 -11 -5 -15 -6 -4 -10 4 -10 19 0 14 -4 27 -9 30 -5 3 -9 -9
-9 -28 0 -34 19 -53 40 -40 5 3 4 -4 -4 -15 -10 -17 -14 -18 -16 -6 -2 8 -10
15 -18 15 -8 0 -13 -4 -10 -9 3 -5 -3 -11 -14 -14 -18 -5 -20 0 -20 44 0 44
-2 49 -22 49 -20 0 -20 -1 -5 -13 24 -17 17 -62 -9 -62 -12 0 -20 8 -22 23 -2
12 1 22 6 22 6 0 8 8 5 19 -5 19 21 36 38 25 5 -3 9 2 9 10 0 26 2 30 19 43
10 8 12 12 4 13 -7 0 -13 9 -13 20 0 22 15 27 26 8z m94 -3 c10 -12 10 -15 -2
-15 -8 0 -15 7 -15 15 0 8 1 15 2 15 2 0 8 -7 15 -15z m-559 -25 c9 13 10 12
5 -3 -3 -10 -6 -23 -6 -28 0 -5 -9 -9 -21 -9 -15 0 -19 4 -15 16 3 9 6 21 6
27 0 7 4 6 10 -3 9 -13 11 -13 21 0z m59 -19 c0 -4 -5 -12 -12 -19 -9 -9 -8
-13 4 -17 12 -5 15 -18 13 -51 -2 -43 -15 -76 -15 -39 0 18 -1 18 -16 -1 -15
-19 -16 -19 -9 1 19 53 24 79 18 84 -3 3 -8 1 -10 -6 -6 -16 -33 -5 -33 13 0
8 8 14 18 14 13 0 14 2 3 9 -19 12 -5 30 19 24 11 -3 20 -8 20 -12z m45 -10
c-4 -13 0 -20 17 -24 12 -4 19 -9 16 -13 -8 -8 -78 17 -78 29 0 4 4 5 10 2 6
-3 7 1 4 9 -4 12 0 16 16 16 16 0 20 -4 15 -19z m-648 -13 c-3 -8 -6 -5 -6 6
-1 11 2 17 5 13 3 -3 4 -12 1 -19z m-1475 -20 c-5 -31 -5 -32 -14 -8 -7 20 0
36 18 40 0 0 -2 -14 -4 -32z m2008 -8 c19 -18 27 -35 24 -45 -9 -24 -29 -11
-27 16 3 23 2 23 -12 5 -10 -13 -21 -17 -39 -12 -15 3 -26 2 -26 -3 0 -5 -9
-7 -20 -4 -12 3 -20 0 -20 -8 0 -7 -3 -9 -7 -6 -3 4 4 18 17 32 13 14 19 25
14 25 -11 0 17 20 29 20 5 0 6 -8 3 -18 -4 -12 -1 -19 8 -19 9 0 13 4 10 9 -6
9 2 38 10 38 3 0 19 -13 36 -30z m-275 10 c-3 -5 -15 -10 -26 -10 -11 0 -17 5
-14 10 3 6 15 10 26 10 11 0 17 -4 14 -10z m80 -20 c3 -5 2 -10 -4 -10 -5 0
-13 5 -16 10 -3 6 -2 10 4 10 5 0 13 -4 16 -10z m562 4 c-3 -3 -12 -4 -19 -1
-8 3 -5 6 6 6 11 1 17 -2 13 -5z m-890 -66 c-2 -13 -4 -3 -4 22 0 25 2 35 4
23 2 -13 2 -33 0 -45z m664 29 c-8 -8 -14 -8 -23 1 -9 9 -8 12 5 12 9 0 17 6
18 13 0 9 2 8 6 -1 3 -8 0 -19 -6 -25z m169 3 c0 -27 -3 -30 -30 -30 -23 0
-30 -5 -30 -19 0 -30 -20 -36 -36 -12 -15 21 -41 31 -29 11 3 -5 2 -10 -4 -10
-5 0 -13 5 -17 11 -8 14 17 31 31 20 11 -9 43 -6 53 5 4 4 -1 4 -10 1 -10 -4
-18 -2 -18 4 0 7 9 9 21 6 16 -4 28 1 41 19 25 31 28 30 28 -6z m60 -10 c0
-25 -4 -30 -24 -30 -19 0 -23 5 -22 30 1 24 5 30 24 30 18 0 22 -6 22 -30z
m-800 -4 c0 -3 -4 -8 -10 -11 -5 -3 -10 -1 -10 4 0 6 5 11 10 11 6 0 10 -2 10
-4z m565 -16 c-8 -12 -44 -8 -49 5 -2 7 7 10 25 7 16 -2 27 -8 24 -12z m162
-16 c-3 -3 -12 -4 -19 -1 -8 3 -5 6 6 6 11 1 17 -2 13 -5z m121 -45 c2 -22 -1
-28 -10 -23 -9 5 -8 2 1 -10 13 -15 13 -19 0 -27 -21 -13 -39 -11 -39 6 0 9 6
12 17 8 12 -5 14 -3 8 7 -4 7 -9 28 -11 45 -2 26 1 32 15 28 10 -3 18 -16 19
-34z m-58 15 c0 -2 -9 -4 -20 -4 -11 0 -20 4 -20 9 0 5 9 7 20 4 11 -3 20 -7
20 -9z m-385 -4 c3 -5 1 -10 -4 -10 -6 0 -11 5 -11 10 0 6 2 10 4 10 3 0 8 -4
11 -10z m71 -5 c-10 -7 -15 -18 -11 -24 3 -6 2 -11 -4 -11 -5 0 -11 6 -14 13
-7 21 4 37 27 37 20 -1 20 -1 2 -15z m254 5 c0 -5 -9 -10 -20 -10 -11 0 -20 5
-20 10 0 6 9 10 20 10 11 0 20 -4 20 -10z m-2293 -22 c-3 -8 -6 -5 -6 6 -1 11
2 17 5 13 3 -3 4 -12 1 -19z m2451 10 c-2 -6 -10 -14 -16 -16 -7 -2 -10 2 -6
12 7 18 28 22 22 4z m2 -42 c-25 -41 -30 -44 -30 -16 0 11 6 20 14 20 8 0 18
9 21 21 4 11 9 18 12 15 3 -3 -5 -21 -17 -40z m-380 24 c0 -5 -5 -10 -11 -10
-5 0 -7 5 -4 10 3 6 8 10 11 10 2 0 4 -4 4 -10z m280 -10 c0 -13 -20 -13 -40
0 -12 8 -9 10 13 10 15 0 27 -4 27 -10z m-383 -6 c-3 -3 -12 -4 -19 -1 -8 3
-5 6 6 6 11 1 17 -2 13 -5z m168 -4 c7 -12 -2 -12 -30 0 -19 8 -19 9 2 9 12 1
25 -3 28 -9z m74 -4 c9 -11 7 -13 -11 -11 -30 3 -30 3 -23 15 9 14 20 13 34
-4z m51 10 c0 -3 -4 -8 -10 -11 -5 -3 -10 -1 -10 4 0 6 5 11 10 11 6 0 10 -2
10 -4z m-190 -27 c0 -5 -4 -9 -10 -9 -5 0 -10 7 -10 16 0 8 5 12 10 9 6 -3 10
-10 10 -16z m-2110 7 c0 -3 -15 -14 -32 -26 l-33 -22 28 26 c27 25 37 31 37
22z m2057 -22 c-3 -3 -12 -4 -19 -1 -8 3 -5 6 6 6 11 1 17 -2 13 -5z m243 2
c0 -2 -7 -6 -15 -10 -8 -3 -15 -1 -15 4 0 6 7 10 15 10 8 0 15 -2 15 -4z
m-2233 -28 c-3 -8 -6 -5 -6 6 -1 11 2 17 5 13 3 -3 4 -12 1 -19z m2043 -8 c0
-5 -4 -10 -9 -10 -6 0 -13 5 -16 10 -3 6 1 10 9 10 9 0 16 -4 16 -10z m-130
-15 c0 -8 -4 -15 -10 -15 -5 0 -7 7 -4 15 4 8 8 15 10 15 2 0 4 -7 4 -15z
m-40 -5 c0 -5 -5 -10 -11 -10 -5 0 -7 5 -4 10 3 6 8 10 11 10 2 0 4 -4 4 -10z"/>
<path d="M2538 4509 c-11 -6 -18 -22 -18 -38 0 -25 5 -30 33 -35 18 -3 48 -18
65 -34 29 -23 34 -36 41 -92 7 -62 8 -64 19 -37 18 42 15 117 -5 141 l-17 21
21 -20 c17 -16 23 -37 29 -102 4 -52 3 -83 -3 -83 -5 0 -45 9 -88 20 -43 11
-80 20 -82 20 -1 0 -3 -11 -3 -24 0 -26 24 -38 103 -52 l38 -6 -3 -94 -3 -93
42 -10 c73 -19 69 -35 58 213 -10 219 -11 225 -35 251 -52 55 -145 82 -192 54z"/>
<path d="M2685 3620 c10 -11 20 -20 23 -20 3 0 -3 9 -13 20 -10 11 -20 20 -23
20 -3 0 3 -9 13 -20z"/>
<path d="M2730 3121 c-13 -25 -13 -44 0 -36 6 3 10 15 10 25 0 14 9 20 33 23
l32 4 -32 1 c-23 2 -35 -4 -43 -17z"/>
<path d="M2803 3123 c-15 -6 -17 -33 -3 -33 6 0 10 7 10 15 0 18 31 20 48 3 9
-9 12 -8 12 5 0 17 -37 23 -67 10z"/>
<path d="M2755 3099 c-4 -11 -4 -23 0 -27 7 -7 25 17 25 36 0 20 -18 14 -25
-9z"/>
<path d="M2842 3085 c6 -14 13 -24 14 -22 6 6 -9 47 -17 47 -5 0 -3 -11 3 -25z"/>
<path d="M2910 3089 c-6 -11 -9 -25 -7 -32 3 -7 8 0 12 15 5 21 14 28 38 31
l32 4 -32 1 c-23 2 -35 -4 -43 -19z"/>
<path d="M3008 3093 c12 -2 22 -9 22 -14 0 -6 -4 -7 -10 -4 -12 7 -12 -2 0
-30 6 -13 9 -15 9 -5 1 8 4 25 7 38 6 19 3 22 -22 21 -24 -1 -25 -2 -6 -6z"/>
<path d="M2816 3081 c-4 -7 -5 -15 -2 -18 9 -9 19 4 14 18 -4 11 -6 11 -12 0z"/>
<path d="M2947 3073 c4 -11 3 -14 -5 -9 -7 4 -12 3 -12 -3 0 -17 18 -21 24 -5
9 23 7 34 -4 34 -5 0 -6 -7 -3 -17z"/>
<path d="M2970 3069 c0 -5 5 -7 10 -4 6 3 10 8 10 11 0 2 -4 4 -10 4 -5 0 -10
-5 -10 -11z"/>
<path d="M2725 3046 c5 -26 32 -63 39 -55 1 2 -8 22 -21 44 -22 36 -24 37 -18
11z"/>
<path d="M2780 3060 c0 -5 5 -10 10 -10 6 0 10 5 10 10 0 6 -4 10 -10 10 -5 0
-10 -4 -10 -10z"/>
<path d="M2750 3044 c0 -8 5 -12 10 -9 6 3 10 10 10 16 0 5 -4 9 -10 9 -5 0
-10 -7 -10 -16z"/>
<path d="M2990 3050 c0 -5 5 -10 11 -10 5 0 7 5 4 10 -3 6 -8 10 -11 10 -2 0
-4 -4 -4 -10z"/>
<path d="M2815 3040 c3 -5 8 -10 11 -10 2 0 4 5 4 10 0 6 -5 10 -11 10 -5 0
-7 -4 -4 -10z"/>
<path d="M2774 3029 c-3 -6 -1 -16 5 -22 8 -8 11 -5 11 11 0 24 -5 28 -16 11z"/>
<path d="M2800 3016 c0 -9 5 -16 10 -16 6 0 10 4 10 9 0 6 -4 13 -10 16 -5 3
-10 -1 -10 -9z"/>
<path d="M2906 3015 c4 -8 8 -15 10 -15 2 0 4 7 4 15 0 8 -4 15 -10 15 -5 0
-7 -7 -4 -15z"/>
<path d="M2930 3019 c0 -5 5 -7 10 -4 6 3 10 8 10 11 0 2 -4 4 -10 4 -5 0 -10
-5 -10 -11z"/>
<path d="M2995 3010 c3 -5 8 -10 11 -10 2 0 4 5 4 10 0 6 -5 10 -11 10 -5 0
-7 -4 -4 -10z"/>
<path d="M3027 3013 c-4 -3 -7 -16 -6 -27 0 -19 1 -19 10 3 10 24 8 36 -4 24z"/>
<path d="M2951 2994 c0 -11 3 -14 6 -6 3 7 2 16 -1 19 -3 4 -6 -2 -5 -13z"/>
<path d="M2860 2990 c0 -5 5 -10 10 -10 6 0 10 5 10 10 0 6 -4 10 -10 10 -5 0
-10 -4 -10 -10z"/>
<path d="M2980 2984 c0 -8 5 -12 10 -9 6 4 8 11 5 16 -9 14 -15 11 -15 -7z"/>
<path d="M3853 2535 c0 -11 4 -12 14 -4 7 6 13 13 13 15 0 2 -6 4 -13 4 -8 0
-14 -7 -14 -15z"/>
<path d="M3556 1686 c7 -18 34 -22 34 -4 0 6 -3 8 -7 5 -3 -4 -12 -2 -20 5
-11 8 -12 7 -7 -6z"/>
<path d="M975 1390 c-3 -5 -2 -10 4 -10 6 0 8 -6 5 -13 -3 -8 2 -14 11 -14 17
0 20 13 5 22 -6 4 -8 11 -5 16 4 5 2 9 -4 9 -5 0 -13 -4 -16 -10z"/>
<path d="M3445 781 c-3 -5 -1 -12 5 -16 5 -3 10 1 10 9 0 18 -6 21 -15 7z"/>
<path d="M2716 323 c-6 -14 -5 -15 5 -6 7 7 10 15 7 18 -3 3 -9 -2 -12 -12z"/>
<path d="M2761 5034 c0 -11 3 -14 6 -6 3 7 2 16 -1 19 -3 4 -6 -2 -5 -13z"/>
<path d="M690 4981 c0 -6 4 -13 10 -16 6 -3 7 1 4 9 -7 18 -14 21 -14 7z"/>
<path d="M2761 4934 c0 -11 3 -14 6 -6 3 7 2 16 -1 19 -3 4 -6 -2 -5 -13z"/>
<path d="M690 4910 c0 -5 5 -10 11 -10 5 0 7 5 4 10 -3 6 -8 10 -11 10 -2 0
-4 -4 -4 -10z"/>
<path d="M3977 4053 c-25 -6 -20 -76 6 -81 14 -3 17 4 17 42 0 25 -1 45 -2 45
-2 -1 -11 -3 -21 -6z"/>
<path d="M3984 2160 c0 -11 4 -20 8 -20 4 0 8 9 8 20 0 11 -4 20 -8 20 -4 0
-8 -9 -8 -20z"/>
<path d="M605 1047 c-107 -58 -259 -153 -275 -172 -7 -8 -16 -12 -21 -10 -4 3
-39 -10 -76 -28 -55 -28 -64 -35 -46 -41 11 -4 33 -6 49 -6 16 1 63 -6 104
-14 79 -17 181 -20 215 -7 15 6 4 10 -40 16 -37 4 -61 3 -63 -3 -2 -6 -22 -5
-55 4 -29 8 -64 14 -79 14 -15 0 -30 4 -33 10 -11 17 257 180 296 180 11 0 11
-2 -1 -10 -29 -19 2 -10 51 16 28 14 83 32 122 39 40 8 87 20 105 28 l34 14
-47 7 c-113 15 -155 8 -240 -37z"/>
<path d="M1265 1080 c-129 -10 -200 -32 -287 -91 -107 -72 -288 -232 -288
-255 0 -9 20 -12 65 -12 35 1 62 5 59 10 -3 4 5 8 18 8 19 0 28 10 42 40 10
23 28 48 42 56 21 14 28 14 66 2 40 -14 43 -17 44 -52 1 -29 -2 -36 -14 -31
-9 3 -40 0 -69 -6 -48 -11 -57 -17 -74 -50 -32 -63 23 -67 59 -5 16 27 29 35
61 41 23 4 47 15 54 25 10 15 62 26 267 59 299 47 519 100 526 127 2 5 -19 33
-45 63 -39 43 -56 55 -92 62 -69 13 -313 18 -434 9z"/>
<path d="M393 979 c-14 -5 -12 -7 7 -12 13 -3 31 0 42 8 18 12 18 13 -7 11
-14 0 -33 -4 -42 -7z"/>
<path d="M30 940 c34 -11 60 -11 35 0 -11 5 -29 8 -40 8 -16 0 -15 -2 5 -8z"/>
<path d="M224 919 c-3 -5 9 -9 25 -9 17 0 31 2 31 4 0 8 -51 13 -56 5z"/>
<path d="M0 906 c0 -8 6 -17 13 -19 10 -4 10 -6 0 -6 -20 -1 -15 -21 5 -21 9
0 44 -9 76 -20 68 -23 87 -25 84 -8 -2 7 9 13 27 13 17 1 41 8 55 15 24 14 22
15 -45 22 -38 3 -96 14 -128 22 -72 20 -87 20 -87 2z"/>
<path d="M2059 864 c-11 -14 -10 -18 6 -30 10 -8 24 -14 30 -14 15 0 125 -113
125 -128 0 -15 1 -15 96 2 229 41 297 44 315 15 4 -7 14 -9 25 -4 11 5 35 10
54 13 58 7 49 14 -15 12 -85 -3 -83 -4 -87 38 -2 25 -7 36 -17 34 -22 -5 -415
59 -425 69 -6 5 -15 9 -20 9 -6 0 -3 -5 7 -11 9 -5 17 -14 17 -19 0 -4 -8 -7
-17 -5 -10 2 -34 4 -53 6 -24 1 -28 3 -12 6 12 2 22 9 22 14 0 15 -37 10 -51
-7z m263 -131 c-6 -2 -10 -9 -7 -14 4 -5 -5 -8 -19 -7 -15 1 -26 6 -26 9 0 4
-8 10 -17 12 -10 3 5 5 32 5 28 0 44 -2 37 -5z m-65 -29 c-3 -3 -12 -4 -19 -1
-8 3 -5 6 6 6 11 1 17 -2 13 -5z"/>
<path d="M1857 810 c-21 -4 -43 -12 -50 -19 -9 -9 -2 -11 33 -6 25 4 51 8 58
11 13 4 17 25 5 23 -5 -1 -25 -5 -46 -9z"/>
<path d="M3920 746 c0 -2 7 -6 15 -10 8 -3 15 -1 15 4 0 6 -7 10 -15 10 -8 0
-15 -2 -15 -4z"/>
<path d="M2796 715 c-3 -9 0 -15 8 -15 7 0 13 7 13 15 0 8 -4 15 -8 15 -4 0
-9 -7 -13 -15z"/>
<path d="M3970 710 c0 -6 7 -10 15 -10 8 0 15 2 15 4 0 2 -7 6 -15 10 -8 3
-15 1 -15 -4z"/>
<path d="M1293 699 c-54 -16 -48 -29 9 -22 60 6 105 34 53 32 -17 0 -44 -5
-62 -10z"/>
<path d="M2541 666 c-9 -10 -6 -12 14 -8 29 5 31 8 11 15 -8 3 -19 0 -25 -7z"/>
<path d="M2230 652 c0 -12 4 -22 10 -22 5 0 7 -6 4 -13 -3 -8 2 -14 11 -14 8
0 15 9 16 21 0 12 3 16 5 9 4 -8 15 -8 41 -1 19 5 44 7 54 5 11 -3 19 -1 19 4
0 9 -6 11 -50 13 -14 0 -31 5 -37 9 -8 5 -13 4 -13 -2 0 -15 -33 -14 -48 1 -9
9 -12 7 -12 -10z"/>
<path d="M2455 663 c11 -3 25 -9 32 -15 7 -5 13 -5 17 0 6 10 -27 23 -54 21
-8 -1 -6 -3 5 -6z"/>
<path d="M2430 622 c0 -7 5 -12 11 -12 5 0 8 -4 5 -8 -3 -5 8 -9 24 -10 17 0
30 4 30 10 0 6 8 5 18 -4 22 -20 50 -19 47 1 -1 10 -13 16 -31 17 -16 0 -38 4
-48 9 -14 6 -17 5 -12 -3 10 -16 -16 -16 -32 0 -9 9 -12 9 -12 0z"/>
<path d="M255 609 c-28 -6 -28 -7 -5 -9 24 -2 24 -2 -5 -11 -16 -4 -40 -21
-53 -36 -21 -25 -23 -26 -17 -5 4 13 2 22 -4 22 -6 0 -11 -8 -11 -17 -1 -10
-8 -29 -16 -43 -14 -23 -15 -23 -11 -3 5 24 -9 33 -55 33 -26 0 -29 -2 -18
-15 8 -9 9 -15 2 -15 -6 0 -14 5 -17 10 -3 6 -15 10 -26 10 -16 0 -19 -7 -19
-39 l0 -40 38 5 c129 18 144 24 207 85 63 60 66 82 10 68z m-215 -109 c8 -5
11 -10 5 -10 -5 0 -17 5 -25 10 -8 5 -10 10 -5 10 6 0 17 -5 25 -10z"/>
<path d="M163 593 c9 -2 25 -2 35 0 9 3 1 5 -18 5 -19 0 -27 -2 -17 -5z"/>
<path d="M47 580 c-33 -6 -64 -21 -41 -19 32 2 133 27 109 27 -16 0 -47 -4
-68 -8z"/>
<path d="M128 563 c7 -3 16 -2 19 1 4 3 -2 6 -13 5 -11 0 -14 -3 -6 -6z"/>
<path d="M1390 513 c0 -20 3 -34 6 -30 9 9 11 67 2 67 -4 0 -8 -16 -8 -37z"/>
<path d="M3901 546 c10 -8 89 -13 89 -5 0 5 -21 9 -47 9 -25 0 -44 -2 -42 -4z"/>
<path d="M2370 485 c7 -9 15 -13 17 -11 7 7 -7 26 -19 26 -6 0 -6 -6 2 -15z"/>
<path d="M2687 483 c-3 -5 -3 -13 1 -18 9 -13 32 -17 32 -6 0 13 -28 33 -33
24z"/>
<path d="M2530 476 c0 -2 7 -6 15 -10 8 -3 15 -1 15 4 0 6 -7 10 -15 10 -8 0
-15 -2 -15 -4z"/>
<path d="M2618 473 c7 -3 16 -2 19 1 4 3 -2 6 -13 5 -11 0 -14 -3 -6 -6z"/>
<path d="M802 415 c0 -16 2 -22 5 -12 2 9 2 23 0 30 -3 6 -5 -1 -5 -18z"/>
</g>
</svg>
